<mxfile host="Electron" agent="Mozilla/5.0 (Windows NT 10.0; Win64; x64) AppleWebKit/537.36 (KHTML, like Gecko) draw.io/24.7.17 Chrome/128.0.6613.36 Electron/32.0.1 Safari/537.36" version="24.7.17" pages="2">
  <diagram name="Development Process" id="72BW0YpxLQjp6CsDiOAO">
    <mxGraphModel dx="1845" dy="1133" grid="1" gridSize="10" guides="1" tooltips="1" connect="1" arrows="1" fold="1" page="1" pageScale="1" pageWidth="1000" pageHeight="700" math="0" shadow="0">
      <root>
        <mxCell id="0" />
        <mxCell id="1" parent="0" />
        <mxCell id="KT1xosEXPYDzVoyJp4zT-9" value="Server" style="rounded=0;whiteSpace=wrap;html=1;align=left;verticalAlign=top;fillColor=#dae8fc;strokeColor=#6c8ebf;fontStyle=1" vertex="1" parent="1">
          <mxGeometry x="-870" y="-630" width="150" height="210" as="geometry" />
        </mxCell>
        <mxCell id="KT1xosEXPYDzVoyJp4zT-2" value="" style="shape=image;verticalLabelPosition=bottom;verticalAlign=top;imageAspect=0;aspect=fixed;image=data:image/png,iVBORw0KGgoAAAANSUhEUgAAAQQAAABkCAYAAABgi07kAAABS2lUWHRYTUw6Y29tLmFkb2JlLnhtcAAAAAAAPD94cGFja2V0IGJlZ2luPSLvu78iIGlkPSJXNU0wTXBDZWhpSHpyZVN6TlRjemtjOWQiPz4KPHg6eG1wbWV0YSB4bWxuczp4PSJhZG9iZTpuczptZXRhLyIgeDp4bXB0az0iQWRvYmUgWE1QIENvcmUgNS42LWMxNDIgNzkuMTYwOTI0LCAyMDE3LzA3LzEzLTAxOjA2OjM5ICAgICAgICAiPgogPHJkZjpSREYgeG1sbnM6cmRmPSJodHRwOi8vd3d3LnczLm9yZy8xOTk5LzAyLzIyLXJkZi1zeW50YXgtbnMjIj4KICA8cmRmOkRlc2NyaXB0aW9uIHJkZjphYm91dD0iIi8+CiA8L3JkZjpSREY+CjwveDp4bXBtZXRhPgo8P3hwYWNrZXQgZW5kPSJyIj8+nhxg7wAAHgRJREFUeJztnXmQFNd9xz+9F4c4BiROCRhJyEISmAWjw5ZkRrYSS4plUFnlOIkTrZJK5ahKCSr7v1b/UwFV5agkTljldOzE4DNWLItFRjKWZLEI3RJiEEisQIblECBYmPzxfY/Xc/RMz3Tv7iy8b1XX7Ha/fv26+/2+73e91+Dh4eHh4eHh4eHh4eHh4eHh4eHh4eHh4eHh4eHh4eHh4eHh4eHh4eHh4eHh4eHh4eHh4eHh4eHh4eHh4eHh4eHh4eHh4eHh4eHh4eHh4eHh4eHh4TGGEYT/KRQKjVcUBDngESAHZMzuQaAPeNz8VkIW6AJWmr+zZn+fOX8rsBnI12hC1lw7W7K/r8q1q2GHuX4Y/cDRKucsRfc+CDzQwDU9GkOWyn0obzbbh/pHuF0jCiu/QRDUKFlHhY1s6GUUgE1Ap6kuY/YfAXoqXC4DrDfn7TFls6HjncAac6wAbAnVXQ2bTPkCIohGkDPn70BtD28bQ/WXHluP7rdxZvWoBxnc+9hIef9otA+NSYTkMd0KGyCEI+hhV0In5YSQQcJWQEJUCz04IeyKWXZPjHqjsKbKdXKhtlRCBj0Pj+FFJ3rHR4DVMcr3oHd2hNp9aEyiKQgBJyA9VarOlfxvR/E4ZGDRRTxS6MGNBo0iW+VYjuqEYMt4DB8yuFE/DhlYdJFce2xaNAshdFKbEMJYQ+MjuDUxjhAttD0kJ4RqyFGbEDyGF9ZMaOQd28FoD87XdVGgKQjBNCCugFt1Oo7qX+v8jRFlevCEcDEji3v+9WgHFuE+1JNaq5oAzUQIYcdONXThRvhGEXbqVWL4HjwhXMywGmYafSiJn6npkAYhtKTUlsfMbxfVWXel+U0S/vle6O+L1mPsEYlV5jeNPpSlur/okkMqhFAoFPLAWvPvo8hOqzR6WwHemuBy+dDfuQT1jARy6FlswYUmt6BRLo792kN0h+0M1d1Vcmx9jfptSHhLSdlqddbS/rIU31+la64x19uIC+FuqXJOJeTMbxJCyIf+7jR1dtU4pxPXXtsGe09bKA65h5FF92z7QPi9pPGe1pt6NwZBsCUIgmyN+4iPRk2GCqaDVelKbbxw/D5RU6vU00NzmQy2PRY2dr6D2qSwh+qRmNK6LbbErD/cuWvVGccktOVK0RVxLYvVxH9fw9GHcsTza+Wo3M44UbZKkY2031NPs5gMFg/jNIUMYrGulK8x1jGInlEn1Z/NalO2i8a84U8Qrak1iq3EI4UwupDW+ADRGaObUXtHE33IpO0a4eum9p4KhUJP0jrSJgSADcBduLTf9Xg7rRT22VTrBA/h0p8b8ab3I+JJkxR6qY8Usuj9P0Z5GnilukcD+dDfDzPypDAc76lhDAchgNj2LvO3TVEGZ/ctSFB32E7rS1DPaMK++Cg7OGO2PBKURxu8Tj8agdI0n3rNb5ykstXoPnprlKsHefObpA/lKtRnsRbNyWmEhBvFcLynhjBchACO+cA93D7zm0tQb5gQxupklS70LDZXOW5V6CdwE7caQS+aXFavql8ND+McXtWwlPTfka0vl6COaoPKIBrMHmFko1i9NPaeeuwWBEE9mb8VMZyEADIfwqqi7eRZGjcjbOiyl9pqaDOhBzcBahXVZ0M+gu4th5s9+VCCa/fSmP1fDXHU61oqcAbnUKzmdAwjjZChDV32Rhy3s1XXM/KkUO972oD61Qaqz8SNhcSEEARBrZfeX/J3n/m7ETU4izqgdcyNJfTgwk6dRHfmHFJjbTgshzSJrirnxEEvsJP0SWEV0aSwleoCNUixltQX45qbcQNBI30ohyOex6KLXSCFjYw8KdTzngZDvxuSXjwNDaGrxvFSwliL857n6ryWfUgPEK0d5GPWla3z2mnhYdSpt1C5oz2EVMee0BZ+ZklgO0zapPAIldtmhT1Nezw8GHRRfx+yJLKB2n1lEN1fVI7BcKGh91QoFBJrzGkQwtIqx7LoQfaG9oV9C3EftI3d59AL6otxTq16G3XUpYG1qDNupJgwrQpd6luwI+kjKVz7YfObFimEbe6ukmN51LlrJeDUi15cn6pHWG0f6iW+htmPBqCRJoW031MspEEI2SAIohq9HnWYUtWsFxeFqJWlljNlVptzemu0xxJUNafXRhrXELIRf9cDK0QZdG9WWLqIvr/HiefIiwPb2dLq4PZ+Kvk5bMgxfJ9p4GFTt32G1fpQFpd9uQF3/3FhSaEaIU+tsK9am+Kg7vcUBEF62liD2Yl2Omnp6kJ70EvIVrlkxpQ9YrZNofM3mTpsPTb7sYfKHcsKS6Fks+fbLclsy9W4efj2nm1oLer+bNvXVCiXxWWrdZm2RZFrhuIFQbK4RWbCdedC9WRr3M8OilXuqDrXVLmH0vupNOnIvucduLTl1Wazq0z11GhrtWtupHIf6sE9/6jnkQmdX0uYrAM0jB5c37RpxPa6PaH6S9uQo/H3FO5X4futRYw1kcqaikEQdFLsKOvDrWcXF/Z8y4aldeSQmp9DI87jlEcxxjKy1Pe80oKNYoxUfdapajFIeqHJ0j5k6+5LqX5I/3mldl0rv6O+pmLq87CrI4cbpS0rZ0fq4h4ezYqmWQ9hhAnBooty9X0Nnhw8LlFc6oRg0UUxMVhyWI9sviiHTNac2zXM7fPwGBGkIYfFPoR1ieoi6E52fkLYRJ5V1I5NW7vycUbHbvfwSB1p+BDa0mpME6DfbDapI0u5+ZCmA6sIhXW0A0PAHBTOnQpMAtqBj4E9QfdF4wD1uEiRqoZwCeAy4BMk+EvQ8zsLzACmIOH/CDiHyOewKX8akdM44HJgN14zaX785aiZwYngNYR0MQ4JMcBENIHnLBLuAJiPhP8YcAj5LE4Bv0SEcRhpB1cibWEaMAvYC5wEXkCEMd+UGQJeNcc8PEYVlyohtALzgPFImI/jvvVwN3AFmjk2gAT5FDATmI5G9pdwz24ImA3cgIhkBSKSNkQOvwa2A2cQoSxBGkUrIpW3TB0LTZveAA4My117eNTAxUwI45GAtaNR/CQSwEEkmFcDn0KCDtIC9gPPAPsQKUw3Zd8DXjPlrD7WAfwWEuyDuAjHROSn+NDUOQQsQiQwHRHDJ6Y+e51lSGPYb9p4GbAckdSr+CXfPUYIFzMhXAn8BrLZwziDBO9V4B9wdr3NRT+FyOM9JLBtSLABFiMNohWN/PuA94EJwGTgdWRGWMwBbscRwyDSOPKh48vMubuBV5C/4VakdQwiMliMzI5tOHPGwyN1jEVC+BJSzyfg2n8OefIPm20/UsX/FqV8zkZCP8mcc86c34IE8H2zleK3getM+aOmzE+R0FtH4hDKewCRizVHViJB34cI4KQ5bxARwUxkogSIXN4xbVlu2nsIOShbTPk2pH1MAT6DfBYnzPWbToMIuulEqeYZtC7CAkzKeWFdZYdqHWHrcN39DFf4uLumcy7yHhtpzyjm8lxAMxBCOxJUUMceMtvpiPIvIyHKInU7QEI4xWxZJFRngb9HanetcN8Ss41HI/BxJIzPAP+HBHwGIpHrkInwakkdrcB9iKxOICJ4ztQVIL9AG3CTuc4s0959uFz7mYgMrGNzwDybTxC5jEfENwH5HPqRxrIHkWC7ud6oo7CO/qCbncCjhXWa2Rp00wXsCLpZFkUKMdGPW614NHNJ+tFiJo/iZu92oQFiGWMwkjQahDAe+Cyy4aejzh2Fo0igD6JOvxsJlnW6tZk6LjP12tH/lDnn44jrQzHh7EWCeC0uj8BiP9EzEKcAX0f+hGOmXd9BZsk0RBIDpuyMUJsXmP/zODIYh6ZutyMtZwAR5HREfIOmzR+be7sGmRgHEUkdQD6RIaQdZUJ1NAUK6+gNunkUZZBuqFW+BgZLfpsFvZDaPY44RoMQJiIn2xUxyk41Wxa4BRHE3yChB3X+gzHqWYj8CdNxwj6ERtODiBB+gcyBdiTo403ZsE+gzbSlDY3ah4H/QlrBXOAqc/xnlCdAzTP3cDkyPfqAN0PH7zb1nkDkctjsn2CuNRGRxjlkfhxFpPqKue7NKKR5i2nLEPJFvIbI4X3ccxtN5GmC5caHGXnG6D3WSwgdqFO2m1+LIdRprQe92qh0GPg7NCLPRSPl5WiUH2c2K7Rn0Yh4DI12b9JYpz6AhH48zjxpQ6P4NOB64E6kfp5FNn0lzEMLZYwP7TuJQoU/oTyXIAB+z1zzKBLe99DzCWsot6KoRAfSKtpM+cCUPWfq6DDlT6N3MANpA68gv8JsFBK9FzkgTwCfRqTQCbyLCPYD9K5GA53Uv0DJWMOYvccoQpiFVOfZaCSfhDpSR0T5Uhw32yEkjG9TrtoN4NTpRmHbOI1i0+OMud4x1PmPAz82WyZUfjwis1OmnWdDdbQhm34cEspjyN5fj9T1K01d7UiIJ1FMCONNO76P/BNXo47SCfyLqc/iIBLorGnLt0PHZiJT5iiODM+a9luiOGCO34i0nG0ouvEz04ZOpLEsQ+/iRmSKtSCibGcYoxdB94W5JQ8Ba8P+g6D7wgS0XpzNnUEzVzdTX6p5Fqnq/aaOLOXrIdg5L3lzPINUe7vQTS+ur9qym6ntD8iZ34dwS+TZe7EL2oTvx7Z1kNDCsebbjDmAQqHQG/4/dF6v+Z5q6iglhOXA55DAJMFks81FdvGXkBf25wnrtWgF/ggRVxwMIEHJowdfy+4cD/wFxZoASAA/QE6j0pVzwvgdZKaABG8/8Czlnx+fBPwBIpwDSMt4Czd6X2nq2WvuwS6zfQIRx1lk3gyae7sJaTs7kdZyu6kzQFpIH/B5RAoZc/4SRIoB8tFMJFpDSopB4NGgW/4EgMI6NgfdPIIEJW/K2Rmq9ZDBajSxrXRktisS9YbqtF+T2oBbcGczeq8XhNPU2Ud9zsFB3Hqdvbh38xDFq0LlcR/kudAfC4VC3pBAX8n/FAqFniAIcsNFBlC+puKNJCeDSjhAuh7Xc+jFxl2HfhZyvMXFaeC7SHDCWoMNKd5LeX5DGJuBp5F5MBEJ3deQRhPGCeBbSHgzqHOuCB0/gLSak6b9N5j9B5H5dBaN+uORMA8gEpmHojGDiADeQWR0N9Ia5qBnaJOgPkaaUBaR+EIqrxHYEArr6DPbWszS5ibiYPEwLnwHWruwp87LrKfywql2VehsxHl95nfQnG8/dpJFz6Cv7IzoevpMHXb59q6Y58ZGoVCI256GUKoh/BvqUAtQx7C2/WUx6wunAR9CI827qOOnjefNlkFmjW1rO7qv07jY/0BEGzLI0TgZCbv14n+IBGw3GjkzuByGT5BADoXqmYsEc4o5fgw58f7dlGsBzpdcexXqdCfN9bYjIQ/7X76CRv2PkOZgQ50BIu9FiGinIfI4gZKYpgJPAbuA2xCBbTXtuAs5H69CxLATaYW/QkSwH/kmxuHmYKRmTphw5GZEAL1mXz7o5jFkJtg4fj3I4bS/SvgeEs6e0L7wOhl95nczyh/J4VT/RtBv6rpwjylgQRAEOSBTKBQ2p1RnGSr5ECol6bQhYWtBndHa1bajWI99PcigDmnj8Vbo2s112hDBDCGCOY46/bsUawbWBHinjmtPA75K+YgdxmH0YrfjFvCMwgJECKWZLGeAJ6ms+j6H7nUh8oMsRYQQ9h9sMudejwT4c0jQzyEyfMvUkUHP5h1T7jQiuENIS1mE/B5vmGt90dTbiqISb5rjh3DO4pNI87geEVy+yv3Xi52ULGgaMh3yjGy4rpNiLeAxZDo8TrKQZtk9poROoj8BmBhxowxDpPCZKNQBb0WdP07Y0drwM0L7Csir/gMaD6N1UNs0mg58ARHRyzXK/gKp5IuRuj4NkdrHSGDDmIhIcAgJ9yak3Uyg2HafhzSEM8hvsQ2RocUs5JsJUMr0+0hwX0bP+OvIb/EC0pBuQM7JpxFBzDftnmva/bZpxxSkscw015uPNI+bTD1p+RfyFfZtbbCufoo/e1eKlZSP9tbZ2Fey39r89fgvopCPcTxbYf9Uyu9jrzEX+hK2qSpGOg9hFepYSRCgUdAmITWCD4G/Rmr3PNT57XoGBUQCv0Yj8K4K5882WwfONBlAAl4Lf4ILfYJe/C7kcA3fz/tIuG9Gzt7liAg3meM7EBFchzSd+eb4YeRb2I4jkAJKWgpMm19BxPQACkk+hXwXbyOtbDnSLK5Dz3k+0gYnIE0iT7kJFAtBNxmkjlf7jFq9GMR9EKbUqZijuoBHkUgS1LpHe83NuOXagQufRswWCoVIQgqCIJPGV5oqYaQJ4SU02s+sVbACziNB3oWEIU4c3YYEQUISFrhTyG7+VR1taEEv+qqI4x+gdOe3q9SxCTn3rLmSQTkQlwE/CpU7j7SCZ3FzMcJm2dVIoI8jO/9Ds/8MIoKVKBnrdRT6/CekDVyDtLOXEClMMts+ZEocR2SSxZkcK5D2MQ+Xv7GbKoJk5jKsMn9vQiq0TTJbW1hXrPYaoliACxfmo+qOwFrkJ1iPNI1BnJ8gTBLWs58z/6+iWHvIho73U50sLtwjlN8jTrXP4UKY4WsOmrb1AH2GDDopJ7UFQMb4ELIUZ7imitFaMWkGjhimok423rTnPBqNzuL8A4Oow1dzbk1Eo6BNC55BOeGdQp38A/Ty4mQ5htGCXtbcKmUKKJuyms8B1OmuwuUvhJ2v7cCfmjKnQu19Ded0DNBIfjt6hudRRMJOtOpAZs8UJNSnkQm0GPkaXkDPdTnS2vajeRtZ9NzeQx24HTkz56B38joyPU4hkrIzPhOjzjU51yCn3XBExUYFaU1uSrJi0sWwhFqAOvot1KfxFFCM/sU6r9eCfCCLkJCEIzBW/d9KcbRgFmL+jNl/FAmSXRylEnJI2MOh4b0oEhRW1wNErBncvA+AB00bBxCZvIQ0pAXIDJmLHJ5vIgHvQKP+BKQpXIE0lP3Isfg6IpdFZt8cRGR7zTn7aNCMuHAj9RHCJjRSjrWvgEeiGQihGWY7JsUS5H2vF1aQ6sV5NAqHR2Kb6Rcl3L9P+SSuW9Ao+xNk05eiD6msi5EQT0BOynAI834kzEeQcIRH6k1I8G8G7kEkthEJcMG0eZ8pexiFJlch4vgBzl8whAhglSm/C5HCMUQSS8zfOUSI9lNww4ms2cZkenAz42LQECai0XBBHeecQJrBc1R2TAZoBLW5GHZ+wcfI5NhLfY6oHHAH5WFJkPD8FeXzIKaY35NEE80S4MsUrwvxEyTUYUzH+QkKyES4H5HLTuT3OI60gutR3sObKIoxBzk3X8OFP59Fqvo8ZOpcgwhmO3JA7qOB3JOYGkIGmQqP0XwzHROhGTSEi4EQLGajUWM2EiY7CesMEqiPcCPpANERiqVIgKdEHLfYjZyAccOxM0zdWSSgraY9u5CAWbQAf4hzOp5HI38/Et7SXjMVaQHXm3qPoIVhzptjv4ts/7y51oeh825BGkgr8nucQiRwBvkNDpr23mrq/o6p60bkOB2HEp9Oo0hFFhHBQkRSL9bxfOISQpYxuM5AHHhCaD4sRPMQ4uID5L1PEwHwZ1ROjd4D/Cf1hVvvRutPWLyInIfhOjpwUZvZSHuYjZyPTyKTwiajnUEmwxcR+TxlfjOIGO5AmZ/bzP9nGJ5M1eGHX4b9kke9T7JaR5+OW7LdrgD1Pm6EjkIBOQ6/hAQvjKuRaRROULoHpZufRKr6KxSr0k8hW99qEStQjsXzSDN4BI36b+OSmP4RkeMiFL7chDSWB5E/4XmkUVxtyv0C+TKWIs3i56ZNh3AOzH7qyyb1GAV4DaEcNyIhqJZJeQo5z56hePITaLS939RTCb9GUYjSJdgqYRoSuJnoXdmZlnboakVe9rDD8jxab3EL5ZpEgHwu4ZWkrkUZkZNMvS/g0qM7UBRl0BzLoGezGJHSZmR6XIsI5TgKY85HGZELEDHuMvdyhJRClCOCS1BD8IQQjRlIbZ6M1OXzuI+zDBDt6LsDt75eNfwv9Yc8K+EqNJOydALaDuCHof+XopH6EAp3htdjGIfWY7Ap5VsR2S0AvoEIZBfSBE7iIhAHTX2fQ/c9gGZT2pWoPzHt+ywimCcRUX6Ii3Y0LzwhJG6Lh/IN7o9RLsr/cDkagScjITqEHJjVEp3GIVNgMS6Uuhv4j1CZP0YEBxLE15EvoXRSWgfSeqw0ZNH3J6YjzejHKOIwGZeTcABpHp9BcyZeMO2+zxx7HplXExER3YbMjReIpymNDjwhJG6Lh3AXGjVL15uwOIciFDtL9s9F6betpSegmYpPUjyyV4Jd5q5U0GegCU+Z0L5TaIq2XbR2DhLyQ8gEsJmhrWhkX4JI5QlkRjyIskMHkFbxVsk1bRTiM6a+nyJN4jDyJ9iJU/ka9zQ68ISQuC0eDlNwsx8nIwfuSSR8L1PZuXgLciZG4QTwTRpfar0DZT+uwM0k3Yebs78caQMgLeFF5CCsljL+aRSmnYpyF76P+0DN24j0ziITw66GfQduWbdtSKv5hOIFbUcfnhASt8UjGSah2ZATq5R5HmkKYdyMnH0TUNx/N0pOivpGZCuKAlxB8bL2oIlWK3F94xjw3zhn4G1o5H8rdF4L0hQWotH+FUSG95hj25H/4SxyQO4zbehEPoY+U+8MU+4NmsG/4AkhcVs8kuMKtLBG1OIt1uEXRjeVv2/xMnJe1rvC8lyUZ5A1/59GyU4fI23gTrP/AIpm7I6ox36DYznSjr6FTI87kB9iO8VawQxEDBnk36gVoh1eeEJI3BaPdBCgkfR6NJJ3IHPhDaQhlE4i+gqKEFTCfuBfKY6KzEaq/nnk7X+XyslOVyBVf4K57imz/1ZEGNbXsQv5RM4i38lMZC68YeptRRGLE8hkmIOmZs9H08+fRiQTIBPjMCKFjyLuaWTgCSFxWzxGBx3IYRg1n+NHFM9vCK8KDRLUbchnEFcKLkfO00WoH72LohqXo1DlZOTr+Lm5dqV6r0IOxynogze3IkLZizSPj1DUYjeOjEYOnhASt8Vj9NCK1O3bKf6IDig34LnQ/8vQpKhS7ENrOoYnWk1CI/kgMhEqzaVYaMptw30r4h7cKtEH0CrWgygt+xTSBHZSns8xGRGDdTruQ+nX+1HCVdJvecSHJ4TEbfEYfbQhU2MWUvUPIMEqXUPhXjQ6l+IQyo+wGZj3hcodRabDi0QnZoWxAJkCVyOS+WfTjq8iU+g48ofY7MtFSCv4CLcArV0xewUivD3IxKgVfk0OTwiJ2+IxtrAC+QJKv8j1FPL2gwS3i+KciiMovPheaN9E5BQ8RPlUbrs82j7kH2hBkZE7EWntR/Ml5iPNZYDK0YZ2NHV7IYpMDK+PwRNC4rZ4jD1chlR0+z2HAspGDPscbkKOy/BkuNJyNofhPBrFn0W+gGoYh4hhGTJ5vmnacz9yPA6gaMMHKAnqgLne8GsH4AnBE8IljwnIFCidsAXSFO6neEl8kM/hTSTQD5lyFm+hBVvsmgg2enKE8uXcp6Gw5hlTbjHKh5iGzJRfIjPnWhTVeMbUs8Ccl7624AkhcVs8Lm60IU3gNtyn3vaij9eCRvyvUfytgdPIvHgTqfx/jqIK1ix4lejIRoASnuwisM+bv7+AHJfPmnq/bOrYjuZopCPJnhASt8Xj0oD9NsZ0pMaHV69uwc1+tB+pKSBSeBk5O7+By8Y8iJKnrD9iDnJC7iY6MakVaRC3mb+/izSFlciceJryeRX1wxNC4rZ4eFhMQ6TwaUQS59DHcY4hJ+ODuGzMAopc/BT5ELqQBhLnOxezUUZkHpcZeTNKtf4xtZfDj4YnhMRt8fAoxQQUBp2K/ACnzf4W5Mz8PC7K8R5Kbx6HCMP6I/Yi5+IA8mHch5s4FV7sxaIDaRDXoIhJY4uxekJI3BYPj3oxBan+y5GJ8TYihQCZHjnc0vPbUObjCpT6XEA5DNtwM0BnIQJI/sVqTwiJ2+Lh0Sg6UARhIsWf15sJ/CbyK4C0hW8j/8VXkMZwFmViPoecjvciH8IvSbJkmyeExG3x8BguZJGJsRD5FjaiqMeduMVoDqF1HtvRdy+nojkWW8w5y5H/Yhdx1l7whJC4LR4eww2bERlOerIfzF2KTIunUALTncjJ2ILWaNiC0rA/S5zkKU8Iidvi4TGamIpb1/FJtEzb5Sg9+3rk0PwZ0hbuQatZ7TH7yheT8YSQuC0eHs2KOci0uAGZDD9EkYgcmmG5E2kWbpr1JUgI/kMtHpcKDgD/gzIcFyFtYifKlFyOyOJTKNW6eVeCHmZ4QvC41GA/9GsxhFKif4WWd1uGNIbtI980Dw8PDw8PD49mxP8DJrh7PBXL6FkAAAAASUVORK5CYII=" vertex="1" parent="1">
          <mxGeometry x="-440" y="-381" width="80" height="30.77" as="geometry" />
        </mxCell>
        <mxCell id="KT1xosEXPYDzVoyJp4zT-10" style="edgeStyle=orthogonalEdgeStyle;rounded=0;orthogonalLoop=1;jettySize=auto;html=1;entryX=1;entryY=0.5;entryDx=0;entryDy=0;" edge="1" parent="1" source="KT1xosEXPYDzVoyJp4zT-3" target="KT1xosEXPYDzVoyJp4zT-9">
          <mxGeometry relative="1" as="geometry" />
        </mxCell>
        <mxCell id="KT1xosEXPYDzVoyJp4zT-11" value="Publish" style="edgeLabel;html=1;align=center;verticalAlign=middle;resizable=0;points=[];" vertex="1" connectable="0" parent="KT1xosEXPYDzVoyJp4zT-10">
          <mxGeometry x="0.0457" y="-1" relative="1" as="geometry">
            <mxPoint as="offset" />
          </mxGeometry>
        </mxCell>
        <mxCell id="KT1xosEXPYDzVoyJp4zT-3" value="Windows Desktop PC" style="rounded=0;whiteSpace=wrap;html=1;align=left;verticalAlign=top;fillColor=#d5e8d4;strokeColor=#82b366;fontStyle=1" vertex="1" parent="1">
          <mxGeometry x="-580" y="-630" width="220" height="210" as="geometry" />
        </mxCell>
        <mxCell id="KT1xosEXPYDzVoyJp4zT-6" value="SQL Server&amp;nbsp;&lt;div&gt;SQL Agent&lt;/div&gt;&lt;div&gt;SSIS Catalog&lt;/div&gt;&lt;div&gt;&lt;ul&gt;&lt;li style=&quot;&quot;&gt;Scheduling&lt;/li&gt;&lt;li style=&quot;&quot;&gt;Automation&lt;/li&gt;&lt;/ul&gt;&lt;/div&gt;" style="sketch=0;shadow=0;dashed=0;html=1;strokeColor=none;fillColor=#505050;labelPosition=center;verticalLabelPosition=bottom;verticalAlign=top;outlineConnect=0;align=center;shape=mxgraph.office.databases.database_server;" vertex="1" parent="1">
          <mxGeometry x="-818.25" y="-585" width="46.5" height="54" as="geometry" />
        </mxCell>
        <mxCell id="KT1xosEXPYDzVoyJp4zT-7" value="Visual Studio 2022&lt;div&gt;SSIS Project&lt;/div&gt;&lt;div&gt;&lt;ul&gt;&lt;li style=&quot;text-align: left;&quot;&gt;Development&lt;/li&gt;&lt;li style=&quot;text-align: left;&quot;&gt;Testing&lt;/li&gt;&lt;/ul&gt;&lt;/div&gt;" style="sketch=0;pointerEvents=1;shadow=0;dashed=0;html=1;strokeColor=none;fillColor=#505050;labelPosition=center;verticalLabelPosition=bottom;verticalAlign=top;outlineConnect=0;align=center;shape=mxgraph.office.devices.workstation_visual_studio;" vertex="1" parent="1">
          <mxGeometry x="-512.14" y="-599.5" width="84.28" height="83" as="geometry" />
        </mxCell>
        <mxCell id="KT1xosEXPYDzVoyJp4zT-12" value="SSIS Development Process" style="text;html=1;align=center;verticalAlign=middle;resizable=0;points=[];autosize=1;strokeColor=none;fillColor=none;fontSize=22;fontStyle=1" vertex="1" parent="1">
          <mxGeometry x="-790" y="-690" width="290" height="40" as="geometry" />
        </mxCell>
      </root>
    </mxGraphModel>
  </diagram>
  <diagram id="ncbbyGsSy6Et04T3SkCJ" name="ETL">
    <mxGraphModel dx="1014" dy="519" grid="1" gridSize="10" guides="1" tooltips="1" connect="1" arrows="1" fold="1" page="1" pageScale="1" pageWidth="1000" pageHeight="700" math="0" shadow="0">
      <root>
        <mxCell id="0" />
        <mxCell id="1" parent="0" />
        <mxCell id="vzS7mOjEv4L8KalcNF0M-1" value="Data Sources" style="whiteSpace=wrap;strokeWidth=2;verticalAlign=top;fillColor=#dae8fc;strokeColor=#6c8ebf;fontSize=16;fontStyle=1" vertex="1" parent="1">
          <mxGeometry x="129.5" y="90" width="531" height="123" as="geometry" />
        </mxCell>
        <mxCell id="vzS7mOjEv4L8KalcNF0M-2" value="SQL Server" style="whiteSpace=wrap;strokeWidth=2;" vertex="1" parent="vzS7mOjEv4L8KalcNF0M-1">
          <mxGeometry x="35" y="46" width="137" height="48" as="geometry" />
        </mxCell>
        <mxCell id="vzS7mOjEv4L8KalcNF0M-3" value="Excel" style="whiteSpace=wrap;strokeWidth=2;" vertex="1" parent="vzS7mOjEv4L8KalcNF0M-1">
          <mxGeometry x="219.5" y="46" width="98" height="48" as="geometry" />
        </mxCell>
        <mxCell id="vzS7mOjEv4L8KalcNF0M-4" value="Flat Files" style="whiteSpace=wrap;strokeWidth=2;" vertex="1" parent="vzS7mOjEv4L8KalcNF0M-1">
          <mxGeometry x="370" y="46" width="126" height="48" as="geometry" />
        </mxCell>
        <mxCell id="vzS7mOjEv4L8KalcNF0M-5" value="Extract" style="whiteSpace=wrap;strokeWidth=2;fillColor=#fff2cc;strokeColor=#d6b656;" vertex="1" parent="1">
          <mxGeometry x="339" y="240" width="112" height="48" as="geometry" />
        </mxCell>
        <mxCell id="vzS7mOjEv4L8KalcNF0M-6" value="Transform" style="whiteSpace=wrap;strokeWidth=2;fillColor=#fff2cc;strokeColor=#d6b656;" vertex="1" parent="1">
          <mxGeometry x="329" y="310" width="132" height="48" as="geometry" />
        </mxCell>
        <mxCell id="vzS7mOjEv4L8KalcNF0M-7" value="Load" style="whiteSpace=wrap;strokeWidth=2;fillColor=#fff2cc;strokeColor=#d6b656;" vertex="1" parent="1">
          <mxGeometry x="349" y="400" width="94" height="48" as="geometry" />
        </mxCell>
        <mxCell id="vzS7mOjEv4L8KalcNF0M-8" value="Destination" style="whiteSpace=wrap;strokeWidth=2;verticalAlign=top;fillColor=#d5e8d4;strokeColor=#82b366;fontSize=16;fontStyle=1" vertex="1" parent="1">
          <mxGeometry x="195" y="480" width="402" height="110" as="geometry" />
        </mxCell>
        <mxCell id="vzS7mOjEv4L8KalcNF0M-9" value="" style="curved=1;startArrow=none;endArrow=block;exitX=0.5;exitY=1.02;entryX=0.5;entryY=0;rounded=0;" edge="1" parent="1" source="vzS7mOjEv4L8KalcNF0M-5" target="vzS7mOjEv4L8KalcNF0M-6">
          <mxGeometry relative="1" as="geometry">
            <Array as="points" />
          </mxGeometry>
        </mxCell>
        <mxCell id="vzS7mOjEv4L8KalcNF0M-10" value="Data Conversion" style="curved=1;startArrow=none;endArrow=block;exitX=0.34;exitY=1;entryX=0.28;entryY=-0.01;rounded=0;" edge="1" parent="1" source="vzS7mOjEv4L8KalcNF0M-6" target="vzS7mOjEv4L8KalcNF0M-7">
          <mxGeometry relative="1" as="geometry">
            <Array as="points">
              <mxPoint x="350" y="380" />
            </Array>
          </mxGeometry>
        </mxCell>
        <mxCell id="vzS7mOjEv4L8KalcNF0M-11" value="Lookup" style="curved=1;startArrow=none;endArrow=block;exitX=0.67;exitY=1;entryX=0.73;entryY=-0.01;rounded=0;" edge="1" parent="1" source="vzS7mOjEv4L8KalcNF0M-6" target="vzS7mOjEv4L8KalcNF0M-7">
          <mxGeometry x="-0.1281" y="-8" relative="1" as="geometry">
            <Array as="points">
              <mxPoint x="460" y="370" />
            </Array>
            <mxPoint as="offset" />
          </mxGeometry>
        </mxCell>
        <mxCell id="vzS7mOjEv4L8KalcNF0M-12" value="" style="curved=1;startArrow=none;endArrow=block;exitX=0.5;exitY=1;entryX=0.5;entryY=0;rounded=0;" edge="1" parent="1" source="vzS7mOjEv4L8KalcNF0M-7" target="vzS7mOjEv4L8KalcNF0M-8">
          <mxGeometry relative="1" as="geometry">
            <Array as="points" />
          </mxGeometry>
        </mxCell>
        <mxCell id="vzS7mOjEv4L8KalcNF0M-13" value="" style="curved=1;startArrow=none;endArrow=block;exitX=0.5;exitY=1;entryX=0.5;entryY=0.01;rounded=0;" edge="1" parent="1" source="vzS7mOjEv4L8KalcNF0M-1" target="vzS7mOjEv4L8KalcNF0M-5">
          <mxGeometry relative="1" as="geometry">
            <Array as="points" />
          </mxGeometry>
        </mxCell>
        <mxCell id="vzS7mOjEv4L8KalcNF0M-14" value="Extract, Transform, and Load (ETL)" style="text;html=1;align=center;verticalAlign=middle;resizable=0;points=[];autosize=1;strokeColor=none;fillColor=none;fontSize=22;fontStyle=1" vertex="1" parent="1">
          <mxGeometry x="210" y="13" width="370" height="40" as="geometry" />
        </mxCell>
        <mxCell id="pZ7aBzS6minHBJb2eZ3q-1" value="Data Warehouse" style="whiteSpace=wrap;strokeWidth=2;" vertex="1" parent="1">
          <mxGeometry x="326.5" y="520" width="137" height="48" as="geometry" />
        </mxCell>
        <mxCell id="TK8cJwzLKs-JTmecEI5D-1" value="" style="shape=image;verticalLabelPosition=bottom;verticalAlign=top;imageAspect=0;aspect=fixed;image=data:image/png,iVBORw0KGgoAAAANSUhEUgAAAQQAAABkCAYAAABgi07kAAABS2lUWHRYTUw6Y29tLmFkb2JlLnhtcAAAAAAAPD94cGFja2V0IGJlZ2luPSLvu78iIGlkPSJXNU0wTXBDZWhpSHpyZVN6TlRjemtjOWQiPz4KPHg6eG1wbWV0YSB4bWxuczp4PSJhZG9iZTpuczptZXRhLyIgeDp4bXB0az0iQWRvYmUgWE1QIENvcmUgNS42LWMxNDIgNzkuMTYwOTI0LCAyMDE3LzA3LzEzLTAxOjA2OjM5ICAgICAgICAiPgogPHJkZjpSREYgeG1sbnM6cmRmPSJodHRwOi8vd3d3LnczLm9yZy8xOTk5LzAyLzIyLXJkZi1zeW50YXgtbnMjIj4KICA8cmRmOkRlc2NyaXB0aW9uIHJkZjphYm91dD0iIi8+CiA8L3JkZjpSREY+CjwveDp4bXBtZXRhPgo8P3hwYWNrZXQgZW5kPSJyIj8+nhxg7wAAHgRJREFUeJztnXmQFNd9xz+9F4c4BiROCRhJyEISmAWjw5ZkRrYSS4plUFnlOIkTrZJK5ahKCSr7v1b/UwFV5agkTljldOzE4DNWLItFRjKWZLEI3RJiEEisQIblECBYmPzxfY/Xc/RMz3Tv7iy8b1XX7Ha/fv26+/2+73e91+Dh4eHh4eHh4eHh4eHh4eHh4eHh4eHh4eHh4eHh4eHh4eHh4eHh4eHh4eHh4eHh4eHh4eHh4eHh4eHh4eHh4eHh4eHh4eHh4eHh4eHh4eHh4eHh4TGGEYT/KRQKjVcUBDngESAHZMzuQaAPeNz8VkIW6AJWmr+zZn+fOX8rsBnI12hC1lw7W7K/r8q1q2GHuX4Y/cDRKucsRfc+CDzQwDU9GkOWyn0obzbbh/pHuF0jCiu/QRDUKFlHhY1s6GUUgE1Ap6kuY/YfAXoqXC4DrDfn7TFls6HjncAac6wAbAnVXQ2bTPkCIohGkDPn70BtD28bQ/WXHluP7rdxZvWoBxnc+9hIef9otA+NSYTkMd0KGyCEI+hhV0In5YSQQcJWQEJUCz04IeyKWXZPjHqjsKbKdXKhtlRCBj0Pj+FFJ3rHR4DVMcr3oHd2hNp9aEyiKQgBJyA9VarOlfxvR/E4ZGDRRTxS6MGNBo0iW+VYjuqEYMt4DB8yuFE/DhlYdJFce2xaNAshdFKbEMJYQ+MjuDUxjhAttD0kJ4RqyFGbEDyGF9ZMaOQd28FoD87XdVGgKQjBNCCugFt1Oo7qX+v8jRFlevCEcDEji3v+9WgHFuE+1JNaq5oAzUQIYcdONXThRvhGEXbqVWL4HjwhXMywGmYafSiJn6npkAYhtKTUlsfMbxfVWXel+U0S/vle6O+L1mPsEYlV5jeNPpSlur/okkMqhFAoFPLAWvPvo8hOqzR6WwHemuBy+dDfuQT1jARy6FlswYUmt6BRLo792kN0h+0M1d1Vcmx9jfptSHhLSdlqddbS/rIU31+la64x19uIC+FuqXJOJeTMbxJCyIf+7jR1dtU4pxPXXtsGe09bKA65h5FF92z7QPi9pPGe1pt6NwZBsCUIgmyN+4iPRk2GCqaDVelKbbxw/D5RU6vU00NzmQy2PRY2dr6D2qSwh+qRmNK6LbbErD/cuWvVGccktOVK0RVxLYvVxH9fw9GHcsTza+Wo3M44UbZKkY2031NPs5gMFg/jNIUMYrGulK8x1jGInlEn1Z/NalO2i8a84U8Qrak1iq3EI4UwupDW+ADRGaObUXtHE33IpO0a4eum9p4KhUJP0jrSJgSADcBduLTf9Xg7rRT22VTrBA/h0p8b8ab3I+JJkxR6qY8Usuj9P0Z5GnilukcD+dDfDzPypDAc76lhDAchgNj2LvO3TVEGZ/ctSFB32E7rS1DPaMK++Cg7OGO2PBKURxu8Tj8agdI0n3rNb5ykstXoPnprlKsHefObpA/lKtRnsRbNyWmEhBvFcLynhjBchACO+cA93D7zm0tQb5gQxupklS70LDZXOW5V6CdwE7caQS+aXFavql8ND+McXtWwlPTfka0vl6COaoPKIBrMHmFko1i9NPaeeuwWBEE9mb8VMZyEADIfwqqi7eRZGjcjbOiyl9pqaDOhBzcBahXVZ0M+gu4th5s9+VCCa/fSmP1fDXHU61oqcAbnUKzmdAwjjZChDV32Rhy3s1XXM/KkUO972oD61Qaqz8SNhcSEEARBrZfeX/J3n/m7ETU4izqgdcyNJfTgwk6dRHfmHFJjbTgshzSJrirnxEEvsJP0SWEV0aSwleoCNUixltQX45qbcQNBI30ohyOex6KLXSCFjYw8KdTzngZDvxuSXjwNDaGrxvFSwliL857n6ryWfUgPEK0d5GPWla3z2mnhYdSpt1C5oz2EVMee0BZ+ZklgO0zapPAIldtmhT1Nezw8GHRRfx+yJLKB2n1lEN1fVI7BcKGh91QoFBJrzGkQwtIqx7LoQfaG9oV9C3EftI3d59AL6otxTq16G3XUpYG1qDNupJgwrQpd6luwI+kjKVz7YfObFimEbe6ukmN51LlrJeDUi15cn6pHWG0f6iW+htmPBqCRJoW031MspEEI2SAIohq9HnWYUtWsFxeFqJWlljNlVptzemu0xxJUNafXRhrXELIRf9cDK0QZdG9WWLqIvr/HiefIiwPb2dLq4PZ+Kvk5bMgxfJ9p4GFTt32G1fpQFpd9uQF3/3FhSaEaIU+tsK9am+Kg7vcUBEF62liD2Yl2Omnp6kJ70EvIVrlkxpQ9YrZNofM3mTpsPTb7sYfKHcsKS6Fks+fbLclsy9W4efj2nm1oLer+bNvXVCiXxWWrdZm2RZFrhuIFQbK4RWbCdedC9WRr3M8OilXuqDrXVLmH0vupNOnIvucduLTl1Wazq0z11GhrtWtupHIf6sE9/6jnkQmdX0uYrAM0jB5c37RpxPa6PaH6S9uQo/H3FO5X4futRYw1kcqaikEQdFLsKOvDrWcXF/Z8y4aldeSQmp9DI87jlEcxxjKy1Pe80oKNYoxUfdapajFIeqHJ0j5k6+5LqX5I/3mldl0rv6O+pmLq87CrI4cbpS0rZ0fq4h4ezYqmWQ9hhAnBooty9X0Nnhw8LlFc6oRg0UUxMVhyWI9sviiHTNac2zXM7fPwGBGkIYfFPoR1ieoi6E52fkLYRJ5V1I5NW7vycUbHbvfwSB1p+BDa0mpME6DfbDapI0u5+ZCmA6sIhXW0A0PAHBTOnQpMAtqBj4E9QfdF4wD1uEiRqoZwCeAy4BMk+EvQ8zsLzACmIOH/CDiHyOewKX8akdM44HJgN14zaX785aiZwYngNYR0MQ4JMcBENIHnLBLuAJiPhP8YcAj5LE4Bv0SEcRhpB1cibWEaMAvYC5wEXkCEMd+UGQJeNcc8PEYVlyohtALzgPFImI/jvvVwN3AFmjk2gAT5FDATmI5G9pdwz24ImA3cgIhkBSKSNkQOvwa2A2cQoSxBGkUrIpW3TB0LTZveAA4My117eNTAxUwI45GAtaNR/CQSwEEkmFcDn0KCDtIC9gPPAPsQKUw3Zd8DXjPlrD7WAfwWEuyDuAjHROSn+NDUOQQsQiQwHRHDJ6Y+e51lSGPYb9p4GbAckdSr+CXfPUYIFzMhXAn8BrLZwziDBO9V4B9wdr3NRT+FyOM9JLBtSLABFiMNohWN/PuA94EJwGTgdWRGWMwBbscRwyDSOPKh48vMubuBV5C/4VakdQwiMliMzI5tOHPGwyN1jEVC+BJSzyfg2n8OefIPm20/UsX/FqV8zkZCP8mcc86c34IE8H2zleK3getM+aOmzE+R0FtH4hDKewCRizVHViJB34cI4KQ5bxARwUxkogSIXN4xbVlu2nsIOShbTPk2pH1MAT6DfBYnzPWbToMIuulEqeYZtC7CAkzKeWFdZYdqHWHrcN39DFf4uLumcy7yHhtpzyjm8lxAMxBCOxJUUMceMtvpiPIvIyHKInU7QEI4xWxZJFRngb9HanetcN8Ss41HI/BxJIzPAP+HBHwGIpHrkInwakkdrcB9iKxOICJ4ztQVIL9AG3CTuc4s0959uFz7mYgMrGNzwDybTxC5jEfENwH5HPqRxrIHkWC7ud6oo7CO/qCbncCjhXWa2Rp00wXsCLpZFkUKMdGPW614NHNJ+tFiJo/iZu92oQFiGWMwkjQahDAe+Cyy4aejzh2Fo0igD6JOvxsJlnW6tZk6LjP12tH/lDnn44jrQzHh7EWCeC0uj8BiP9EzEKcAX0f+hGOmXd9BZsk0RBIDpuyMUJsXmP/zODIYh6ZutyMtZwAR5HREfIOmzR+be7sGmRgHEUkdQD6RIaQdZUJ1NAUK6+gNunkUZZBuqFW+BgZLfpsFvZDaPY44RoMQJiIn2xUxyk41Wxa4BRHE3yChB3X+gzHqWYj8CdNxwj6ERtODiBB+gcyBdiTo403ZsE+gzbSlDY3ah4H/QlrBXOAqc/xnlCdAzTP3cDkyPfqAN0PH7zb1nkDkctjsn2CuNRGRxjlkfhxFpPqKue7NKKR5i2nLEPJFvIbI4X3ccxtN5GmC5caHGXnG6D3WSwgdqFO2m1+LIdRprQe92qh0GPg7NCLPRSPl5WiUH2c2K7Rn0Yh4DI12b9JYpz6AhH48zjxpQ6P4NOB64E6kfp5FNn0lzEMLZYwP7TuJQoU/oTyXIAB+z1zzKBLe99DzCWsot6KoRAfSKtpM+cCUPWfq6DDlT6N3MANpA68gv8JsFBK9FzkgTwCfRqTQCbyLCPYD9K5GA53Uv0DJWMOYvccoQpiFVOfZaCSfhDpSR0T5Uhw32yEkjG9TrtoN4NTpRmHbOI1i0+OMud4x1PmPAz82WyZUfjwis1OmnWdDdbQhm34cEspjyN5fj9T1K01d7UiIJ1FMCONNO76P/BNXo47SCfyLqc/iIBLorGnLt0PHZiJT5iiODM+a9luiOGCO34i0nG0ouvEz04ZOpLEsQ+/iRmSKtSCibGcYoxdB94W5JQ8Ba8P+g6D7wgS0XpzNnUEzVzdTX6p5Fqnq/aaOLOXrIdg5L3lzPINUe7vQTS+ur9qym6ntD8iZ34dwS+TZe7EL2oTvx7Z1kNDCsebbjDmAQqHQG/4/dF6v+Z5q6iglhOXA55DAJMFks81FdvGXkBf25wnrtWgF/ggRVxwMIEHJowdfy+4cD/wFxZoASAA/QE6j0pVzwvgdZKaABG8/8Czlnx+fBPwBIpwDSMt4Czd6X2nq2WvuwS6zfQIRx1lk3gyae7sJaTs7kdZyu6kzQFpIH/B5RAoZc/4SRIoB8tFMJFpDSopB4NGgW/4EgMI6NgfdPIIEJW/K2Rmq9ZDBajSxrXRktisS9YbqtF+T2oBbcGczeq8XhNPU2Ud9zsFB3Hqdvbh38xDFq0LlcR/kudAfC4VC3pBAX8n/FAqFniAIcsNFBlC+puKNJCeDSjhAuh7Xc+jFxl2HfhZyvMXFaeC7SHDCWoMNKd5LeX5DGJuBp5F5MBEJ3deQRhPGCeBbSHgzqHOuCB0/gLSak6b9N5j9B5H5dBaN+uORMA8gEpmHojGDiADeQWR0N9Ia5qBnaJOgPkaaUBaR+EIqrxHYEArr6DPbWszS5ibiYPEwLnwHWruwp87LrKfywql2VehsxHl95nfQnG8/dpJFz6Cv7IzoevpMHXb59q6Y58ZGoVCI256GUKoh/BvqUAtQx7C2/WUx6wunAR9CI827qOOnjefNlkFmjW1rO7qv07jY/0BEGzLI0TgZCbv14n+IBGw3GjkzuByGT5BADoXqmYsEc4o5fgw58f7dlGsBzpdcexXqdCfN9bYjIQ/7X76CRv2PkOZgQ50BIu9FiGinIfI4gZKYpgJPAbuA2xCBbTXtuAs5H69CxLATaYW/QkSwH/kmxuHmYKRmTphw5GZEAL1mXz7o5jFkJtg4fj3I4bS/SvgeEs6e0L7wOhl95nczyh/J4VT/RtBv6rpwjylgQRAEOSBTKBQ2p1RnGSr5ECol6bQhYWtBndHa1bajWI99PcigDmnj8Vbo2s112hDBDCGCOY46/bsUawbWBHinjmtPA75K+YgdxmH0YrfjFvCMwgJECKWZLGeAJ6ms+j6H7nUh8oMsRYQQ9h9sMudejwT4c0jQzyEyfMvUkUHP5h1T7jQiuENIS1mE/B5vmGt90dTbiqISb5rjh3DO4pNI87geEVy+yv3Xi52ULGgaMh3yjGy4rpNiLeAxZDo8TrKQZtk9poROoj8BmBhxowxDpPCZKNQBb0WdP07Y0drwM0L7Csir/gMaD6N1UNs0mg58ARHRyzXK/gKp5IuRuj4NkdrHSGDDmIhIcAgJ9yak3Uyg2HafhzSEM8hvsQ2RocUs5JsJUMr0+0hwX0bP+OvIb/EC0pBuQM7JpxFBzDftnmva/bZpxxSkscw015uPNI+bTD1p+RfyFfZtbbCufoo/e1eKlZSP9tbZ2Fey39r89fgvopCPcTxbYf9Uyu9jrzEX+hK2qSpGOg9hFepYSRCgUdAmITWCD4G/Rmr3PNT57XoGBUQCv0Yj8K4K5882WwfONBlAAl4Lf4ILfYJe/C7kcA3fz/tIuG9Gzt7liAg3meM7EBFchzSd+eb4YeRb2I4jkAJKWgpMm19BxPQACkk+hXwXbyOtbDnSLK5Dz3k+0gYnIE0iT7kJFAtBNxmkjlf7jFq9GMR9EKbUqZijuoBHkUgS1LpHe83NuOXagQufRswWCoVIQgqCIJPGV5oqYaQJ4SU02s+sVbACziNB3oWEIU4c3YYEQUISFrhTyG7+VR1taEEv+qqI4x+gdOe3q9SxCTn3rLmSQTkQlwE/CpU7j7SCZ3FzMcJm2dVIoI8jO/9Ds/8MIoKVKBnrdRT6/CekDVyDtLOXEClMMts+ZEocR2SSxZkcK5D2MQ+Xv7GbKoJk5jKsMn9vQiq0TTJbW1hXrPYaoliACxfmo+qOwFrkJ1iPNI1BnJ8gTBLWs58z/6+iWHvIho73U50sLtwjlN8jTrXP4UKY4WsOmrb1AH2GDDopJ7UFQMb4ELIUZ7imitFaMWkGjhimok423rTnPBqNzuL8A4Oow1dzbk1Eo6BNC55BOeGdQp38A/Ty4mQ5htGCXtbcKmUKKJuyms8B1OmuwuUvhJ2v7cCfmjKnQu19Ded0DNBIfjt6hudRRMJOtOpAZs8UJNSnkQm0GPkaXkDPdTnS2vajeRtZ9NzeQx24HTkz56B38joyPU4hkrIzPhOjzjU51yCn3XBExUYFaU1uSrJi0sWwhFqAOvot1KfxFFCM/sU6r9eCfCCLkJCEIzBW/d9KcbRgFmL+jNl/FAmSXRylEnJI2MOh4b0oEhRW1wNErBncvA+AB00bBxCZvIQ0pAXIDJmLHJ5vIgHvQKP+BKQpXIE0lP3Isfg6IpdFZt8cRGR7zTn7aNCMuHAj9RHCJjRSjrWvgEeiGQihGWY7JsUS5H2vF1aQ6sV5NAqHR2Kb6Rcl3L9P+SSuW9Ao+xNk05eiD6msi5EQT0BOynAI834kzEeQcIRH6k1I8G8G7kEkthEJcMG0eZ8pexiFJlch4vgBzl8whAhglSm/C5HCMUQSS8zfOUSI9lNww4ms2cZkenAz42LQECai0XBBHeecQJrBc1R2TAZoBLW5GHZ+wcfI5NhLfY6oHHAH5WFJkPD8FeXzIKaY35NEE80S4MsUrwvxEyTUYUzH+QkKyES4H5HLTuT3OI60gutR3sObKIoxBzk3X8OFP59Fqvo8ZOpcgwhmO3JA7qOB3JOYGkIGmQqP0XwzHROhGTSEi4EQLGajUWM2EiY7CesMEqiPcCPpANERiqVIgKdEHLfYjZyAccOxM0zdWSSgraY9u5CAWbQAf4hzOp5HI38/Et7SXjMVaQHXm3qPoIVhzptjv4ts/7y51oeh825BGkgr8nucQiRwBvkNDpr23mrq/o6p60bkOB2HEp9Oo0hFFhHBQkRSL9bxfOISQpYxuM5AHHhCaD4sRPMQ4uID5L1PEwHwZ1ROjd4D/Cf1hVvvRutPWLyInIfhOjpwUZvZSHuYjZyPTyKTwiajnUEmwxcR+TxlfjOIGO5AmZ/bzP9nGJ5M1eGHX4b9kke9T7JaR5+OW7LdrgD1Pm6EjkIBOQ6/hAQvjKuRaRROULoHpZufRKr6KxSr0k8hW99qEStQjsXzSDN4BI36b+OSmP4RkeMiFL7chDSWB5E/4XmkUVxtyv0C+TKWIs3i56ZNh3AOzH7qyyb1GAV4DaEcNyIhqJZJeQo5z56hePITaLS939RTCb9GUYjSJdgqYRoSuJnoXdmZlnboakVe9rDD8jxab3EL5ZpEgHwu4ZWkrkUZkZNMvS/g0qM7UBRl0BzLoGezGJHSZmR6XIsI5TgKY85HGZELEDHuMvdyhJRClCOCS1BD8IQQjRlIbZ6M1OXzuI+zDBDt6LsDt75eNfwv9Yc8K+EqNJOydALaDuCHof+XopH6EAp3htdjGIfWY7Ap5VsR2S0AvoEIZBfSBE7iIhAHTX2fQ/c9gGZT2pWoPzHt+ywimCcRUX6Ii3Y0LzwhJG6Lh/IN7o9RLsr/cDkagScjITqEHJjVEp3GIVNgMS6Uuhv4j1CZP0YEBxLE15EvoXRSWgfSeqw0ZNH3J6YjzejHKOIwGZeTcABpHp9BcyZeMO2+zxx7HplXExER3YbMjReIpymNDjwhJG6Lh3AXGjVL15uwOIciFDtL9s9F6betpSegmYpPUjyyV4Jd5q5U0GegCU+Z0L5TaIq2XbR2DhLyQ8gEsJmhrWhkX4JI5QlkRjyIskMHkFbxVsk1bRTiM6a+nyJN4jDyJ9iJU/ka9zQ68ISQuC0eDlNwsx8nIwfuSSR8L1PZuXgLciZG4QTwTRpfar0DZT+uwM0k3Yebs78caQMgLeFF5CCsljL+aRSmnYpyF76P+0DN24j0ziITw66GfQduWbdtSKv5hOIFbUcfnhASt8UjGSah2ZATq5R5HmkKYdyMnH0TUNx/N0pOivpGZCuKAlxB8bL2oIlWK3F94xjw3zhn4G1o5H8rdF4L0hQWotH+FUSG95hj25H/4SxyQO4zbehEPoY+U+8MU+4NmsG/4AkhcVs8kuMKtLBG1OIt1uEXRjeVv2/xMnJe1rvC8lyUZ5A1/59GyU4fI23gTrP/AIpm7I6ox36DYznSjr6FTI87kB9iO8VawQxEDBnk36gVoh1eeEJI3BaPdBCgkfR6NJJ3IHPhDaQhlE4i+gqKEFTCfuBfKY6KzEaq/nnk7X+XyslOVyBVf4K57imz/1ZEGNbXsQv5RM4i38lMZC68YeptRRGLE8hkmIOmZs9H08+fRiQTIBPjMCKFjyLuaWTgCSFxWzxGBx3IYRg1n+NHFM9vCK8KDRLUbchnEFcKLkfO00WoH72LohqXo1DlZOTr+Lm5dqV6r0IOxynogze3IkLZizSPj1DUYjeOjEYOnhASt8Vj9NCK1O3bKf6IDig34LnQ/8vQpKhS7ENrOoYnWk1CI/kgMhEqzaVYaMptw30r4h7cKtEH0CrWgygt+xTSBHZSns8xGRGDdTruQ+nX+1HCVdJvecSHJ4TEbfEYfbQhU2MWUvUPIMEqXUPhXjQ6l+IQyo+wGZj3hcodRabDi0QnZoWxAJkCVyOS+WfTjq8iU+g48ofY7MtFSCv4CLcArV0xewUivD3IxKgVfk0OTwiJ2+IxtrAC+QJKv8j1FPL2gwS3i+KciiMovPheaN9E5BQ8RPlUbrs82j7kH2hBkZE7EWntR/Ml5iPNZYDK0YZ2NHV7IYpMDK+PwRNC4rZ4jD1chlR0+z2HAspGDPscbkKOy/BkuNJyNofhPBrFn0W+gGoYh4hhGTJ5vmnacz9yPA6gaMMHKAnqgLne8GsH4AnBE8IljwnIFCidsAXSFO6neEl8kM/hTSTQD5lyFm+hBVvsmgg2enKE8uXcp6Gw5hlTbjHKh5iGzJRfIjPnWhTVeMbUs8Ccl7624AkhcVs8Lm60IU3gNtyn3vaij9eCRvyvUfytgdPIvHgTqfx/jqIK1ix4lejIRoASnuwisM+bv7+AHJfPmnq/bOrYjuZopCPJnhASt8Xj0oD9NsZ0pMaHV69uwc1+tB+pKSBSeBk5O7+By8Y8iJKnrD9iDnJC7iY6MakVaRC3mb+/izSFlciceJryeRX1wxNC4rZ4eFhMQ6TwaUQS59DHcY4hJ+ODuGzMAopc/BT5ELqQBhLnOxezUUZkHpcZeTNKtf4xtZfDj4YnhMRt8fAoxQQUBp2K/ACnzf4W5Mz8PC7K8R5Kbx6HCMP6I/Yi5+IA8mHch5s4FV7sxaIDaRDXoIhJY4uxekJI3BYPj3oxBan+y5GJ8TYihQCZHjnc0vPbUObjCpT6XEA5DNtwM0BnIQJI/sVqTwiJ2+Lh0Sg6UARhIsWf15sJ/CbyK4C0hW8j/8VXkMZwFmViPoecjvciH8IvSbJkmyeExG3x8BguZJGJsRD5FjaiqMeduMVoDqF1HtvRdy+nojkWW8w5y5H/Yhdx1l7whJC4LR4eww2bERlOerIfzF2KTIunUALTncjJ2ILWaNiC0rA/S5zkKU8Iidvi4TGamIpb1/FJtEzb5Sg9+3rk0PwZ0hbuQatZ7TH7yheT8YSQuC0eHs2KOci0uAGZDD9EkYgcmmG5E2kWbpr1JUgI/kMtHpcKDgD/gzIcFyFtYifKlFyOyOJTKNW6eVeCHmZ4QvC41GA/9GsxhFKif4WWd1uGNIbtI980Dw8PDw8PD49mxP8DJrh7PBXL6FkAAAAASUVORK5CYII=" vertex="1" parent="1">
          <mxGeometry x="680" y="550" width="80" height="30.77" as="geometry" />
        </mxCell>
      </root>
    </mxGraphModel>
  </diagram>
</mxfile>
